<svg width="61" height="61" viewBox="0 0 61 61" fill="none" xmlns="http://www.w3.org/2000/svg">
<g clip-path="url(#clip0_2_516)">
<path d="M59.6602 43.5899L57.8605 41.9899V34.9899C57.8605 33.7899 57.4272 32.7566 56.5607 31.8899C55.6942 31.0233 54.6943 30.5899 53.5612 30.5899C52.4281 30.5899 51.4615 30.9233 50.6617 31.5899C49.8618 32.2566 49.3286 33.1232 49.0619 34.1899L47.4622 32.7899C46.6623 31.9899 45.6625 31.5899 44.4627 31.5899C43.2629 31.5899 42.1964 31.9899 41.2632 32.7899L29.0653 43.5899C28.7987 43.8566 28.6653 44.1899 28.6653 44.5899C28.6653 44.9899 28.7653 45.3232 28.9653 45.5899C29.1653 45.8566 29.4652 45.9899 29.8651 45.9899C30.2651 45.9899 30.5984 45.9233 30.865 45.7899V55.5899C30.865 56.7899 31.2649 57.7899 32.0648 58.5899C32.8646 59.3899 33.7978 59.7899 34.8643 59.7899H53.8611C55.0609 59.7899 56.0275 59.3899 56.7607 58.5899C57.4939 57.7899 57.8605 56.7899 57.8605 55.5899V45.7899C58.2604 45.9233 58.627 45.9899 58.9603 45.9899C59.2936 45.9899 59.5935 45.8232 59.8601 45.4899C60.1268 45.1566 60.2268 44.8232 60.1601 44.4899C60.0934 44.1566 59.9268 43.8566 59.6602 43.5899ZM46.8623 56.9899H42.2631V53.5899C42.2631 53.0566 42.463 52.5899 42.863 52.1899C43.2629 51.7899 43.7295 51.5899 44.2627 51.5899H44.8626C45.3959 51.5899 45.8625 51.7899 46.2624 52.1899C46.6623 52.5899 46.8623 53.0566 46.8623 53.5899V56.9899ZM55.0609 55.5899C55.0609 55.9899 54.961 56.3233 54.761 56.5899C54.561 56.8566 54.2611 56.9899 53.8611 56.9899H49.6618V53.5899C49.6618 52.2566 49.1953 51.1233 48.2621 50.1899C47.3289 49.2566 46.1958 48.7899 44.8626 48.7899H44.2627C42.9296 48.7899 41.7965 49.2566 40.8633 50.1899C39.9301 51.1233 39.4635 52.2566 39.4635 53.5899V56.9899H34.8643C34.5977 56.9899 34.3311 56.8566 34.0644 56.5899C33.7978 56.3233 33.6645 55.9899 33.6645 55.5899V43.1899L43.0629 34.9899C43.4629 34.5899 43.8961 34.3899 44.3627 34.3899C44.8293 34.3899 45.2626 34.5899 45.6625 34.9899L55.0609 43.1899V55.5899ZM55.0609 34.9899V39.5899L51.8615 36.5899V34.9899C51.8615 34.5899 51.9948 34.2232 52.2614 33.8899C52.528 33.5566 52.8946 33.3566 53.3612 33.2899C53.8278 33.2232 54.2278 33.3566 54.561 33.6899C54.8943 34.0233 55.0609 34.4566 55.0609 34.9899ZM44.4627 37.7899C43.2629 37.7899 42.2631 38.2232 41.4632 39.0899C40.6633 39.9566 40.2634 40.9566 40.2634 42.0899C40.2634 43.2232 40.6633 44.1899 41.4632 44.9899C42.2631 45.7899 43.2296 46.1899 44.3627 46.1899C45.4959 46.1899 46.4957 45.7899 47.3622 44.9899C48.2288 44.1899 48.662 43.2232 48.662 42.0899C48.662 40.9566 48.2288 39.9566 47.3622 39.0899C46.4957 38.2232 45.5292 37.7899 44.4627 37.7899ZM45.6625 41.9899C45.6625 42.3899 45.5625 42.7232 45.3626 42.9899C45.1626 43.2566 44.8626 43.3899 44.4627 43.3899C44.0628 43.3899 43.7295 43.2566 43.4629 42.9899C43.1963 42.7232 43.0629 42.3899 43.0629 41.9899C43.0629 41.5899 43.1963 41.2566 43.4629 40.9899C43.7295 40.7232 44.0628 40.5899 44.4627 40.5899C44.8626 40.5899 45.1626 40.7232 45.3626 40.9899C45.5625 41.2566 45.6625 41.5899 45.6625 41.9899ZM26.2657 56.7899H8.46871C7.26891 56.7899 6.20242 56.3566 5.26925 55.4899C4.33607 54.6233 3.86948 53.5899 3.86948 52.3899V7.98992C3.86948 6.78992 4.33607 5.72325 5.26925 4.78992C6.20242 3.85658 7.26891 3.38992 8.46871 3.38992H49.0619C50.3951 3.38992 51.4949 3.85658 52.3614 4.78992C53.2279 5.72325 53.6612 6.78992 53.6612 7.98992V25.7899C53.6612 26.1899 53.7945 26.5233 54.0611 26.7899C54.3277 27.0566 54.661 27.1899 55.0609 27.1899C55.4609 27.1899 55.7942 27.0566 56.0608 26.7899C56.3274 26.5233 56.4607 26.1899 56.4607 25.7899V7.98992C56.4607 5.98992 55.7275 4.25658 54.2611 2.78992C52.7947 1.32325 51.0616 0.589916 49.0619 0.589916H8.46871C6.46905 0.589916 4.736 1.32325 3.26958 2.78992C1.80316 4.25658 1.06995 5.98992 1.06995 7.98992V52.3899C1.06995 54.3899 1.80316 56.1233 3.26958 57.5899C4.736 59.0566 6.46905 59.7899 8.46871 59.7899H26.2657C26.6657 59.7899 27.0323 59.6233 27.3656 59.2899C27.6988 58.9566 27.8655 58.6233 27.8655 58.2899C27.8655 57.9566 27.6988 57.6233 27.3656 57.2899C27.0323 56.9566 26.6657 56.7899 26.2657 56.7899ZM43.6628 14.7899C43.6628 14.3899 43.5295 14.0566 43.2629 13.7899C42.9963 13.5233 42.663 13.3899 42.2631 13.3899H14.4677C14.0678 13.3899 13.7345 13.5233 13.4679 13.7899C13.2013 14.0566 13.0679 14.3899 13.0679 14.7899C13.0679 15.1899 13.2013 15.5233 13.4679 15.7899C13.7345 16.0566 14.0678 16.1899 14.4677 16.1899H42.2631C42.663 16.1899 42.9963 16.0566 43.2629 15.7899C43.5295 15.5233 43.6628 15.1899 43.6628 14.7899ZM36.864 25.5899C36.864 25.3232 36.7307 25.0233 36.464 24.6899C36.1974 24.3566 35.8641 24.1899 35.4642 24.1899H14.4677C14.0678 24.1899 13.7345 24.3566 13.4679 24.6899C13.2013 25.0233 13.0679 25.3566 13.0679 25.6899C13.0679 26.0233 13.2013 26.3566 13.4679 26.6899C13.7345 27.0233 14.0678 27.1899 14.4677 27.1899H35.4642C35.8641 27.1899 36.1974 27.0233 36.464 26.6899C36.7307 26.3566 36.864 25.9899 36.864 25.5899ZM14.4677 35.1899C14.0678 35.1899 13.7345 35.3232 13.4679 35.5899C13.2013 35.8566 13.0679 36.1899 13.0679 36.5899C13.0679 36.9899 13.2013 37.3232 13.4679 37.5899C13.7345 37.8566 14.0678 37.9899 14.4677 37.9899H23.0663C23.3329 37.9899 23.6329 37.8566 23.9661 37.5899C24.2994 37.3232 24.466 36.9899 24.466 36.5899C24.466 36.1899 24.2994 35.8566 23.9661 35.5899C23.6329 35.3232 23.3329 35.1899 23.0663 35.1899H14.4677Z" fill="#1A1A1A"/>
</g>
<defs>
<clipPath id="clip0_2_516">
<rect width="60.01" height="60" fill="white" transform="matrix(1 0 0 -1 0.659912 60.1899)"/>
</clipPath>
</defs>
</svg>
