<svg width="36" height="32" viewBox="0 0 36 32" fill="none" xmlns="http://www.w3.org/2000/svg">
<path d="M18.0001 30.2464H7.15007C6.52784 30.2464 6.02229 30.0325 5.6334 29.6047C5.24451 29.1769 5.05007 28.6908 5.05007 28.1464V13.563L16.0167 3.87971C16.5612 3.41304 17.2223 3.17971 18.0001 3.17971C18.7778 3.17971 19.439 3.41304 19.9834 3.87971L33.8667 16.1297C34.0223 16.2853 34.2167 16.3436 34.4501 16.3047C34.6834 16.2658 34.8778 16.1686 35.0334 16.013C35.189 15.8575 35.2473 15.663 35.2084 15.4297C35.1695 15.1964 35.0723 15.0019 34.9167 14.8464L32.5834 12.863V4.57971C32.5834 3.41304 32.1556 2.40193 31.3001 1.54637C30.4445 0.690817 29.4334 0.282484 28.2667 0.321373C27.1001 0.360262 26.1084 0.78804 25.2917 1.60471C24.4751 2.42137 24.0278 3.41304 23.9501 4.57971V5.27971L21.0334 2.71304C20.1778 1.93526 19.1667 1.54637 18.0001 1.54637C16.8334 1.54637 15.8223 1.93526 14.9667 2.71304L1.0834 14.8464C0.850065 15.0019 0.733398 15.1964 0.733398 15.4297C0.733398 15.663 0.811176 15.8575 0.966732 16.013C1.12229 16.1686 1.31673 16.2658 1.55007 16.3047C1.7834 16.3436 1.97784 16.2853 2.1334 16.1297L3.41673 15.0797V28.1464C3.41673 29.1575 3.78618 30.0325 4.52507 30.7714C5.26395 31.5103 6.13895 31.8797 7.15007 31.8797H18.0001C18.2334 31.8797 18.4278 31.8019 18.5834 31.6464C18.739 31.4908 18.8167 31.2964 18.8167 31.063C18.8167 30.8297 18.739 30.6353 18.5834 30.4797C18.4278 30.3242 18.2334 30.2464 18.0001 30.2464ZM25.5834 4.57971C25.6612 3.80193 25.9528 3.16026 26.4584 2.65471C26.964 2.14915 27.5862 1.91582 28.3251 1.95471C29.064 1.9936 29.6862 2.26582 30.1917 2.77137C30.6973 3.27693 30.9501 3.87971 30.9501 4.57971V11.3464L25.5834 6.67971V4.57971ZM18.0001 8.54637C16.9112 8.54637 15.9778 8.93526 15.2001 9.71304C14.4223 10.4908 14.0334 11.4242 14.0334 12.513C14.0334 13.6019 14.4223 14.5353 15.2001 15.313C15.9778 16.0908 16.9112 16.4797 18.0001 16.4797C19.089 16.4797 20.0223 16.0908 20.8001 15.313C21.5778 14.5353 21.9667 13.6019 21.9667 12.513C21.9667 11.4242 21.5778 10.4908 20.8001 9.71304C20.0223 8.93526 19.089 8.54637 18.0001 8.54637ZM20.3334 12.513C20.3334 13.213 20.1001 13.7769 19.6334 14.2047C19.1667 14.6325 18.6223 14.8464 18.0001 14.8464C17.3778 14.8464 16.8334 14.6325 16.3667 14.2047C15.9001 13.7769 15.6667 13.2325 15.6667 12.5714C15.6667 11.9103 15.9001 11.3464 16.3667 10.8797C16.8334 10.413 17.3778 10.1797 18.0001 10.1797C18.6223 10.1797 19.1667 10.413 19.6334 10.8797C20.1001 11.3464 20.3334 11.8908 20.3334 12.513ZM35.0334 30.5964L32.2334 27.6797C32.9334 26.6686 33.2834 25.5408 33.2834 24.2964C33.2834 22.7408 32.7195 21.4186 31.5917 20.3297C30.464 19.2408 29.1223 18.6964 27.5667 18.6964C26.0112 18.6964 24.6695 19.2408 23.5417 20.3297C22.414 21.4186 21.8501 22.7603 21.8501 24.3547C21.8501 25.9492 22.414 27.2908 23.5417 28.3797C24.6695 29.4686 26.0112 30.013 27.5667 30.013C28.889 30.013 30.0556 29.6242 31.0667 28.8464L33.7501 31.6464C33.9056 31.8019 34.1001 31.8992 34.3334 31.938C34.5667 31.9769 34.7806 31.9186 34.9751 31.763C35.1695 31.6075 35.2667 31.413 35.2667 31.1797C35.2667 30.9464 35.189 30.7519 35.0334 30.5964ZM27.5667 28.3797C26.4778 28.3797 25.5251 27.9908 24.7084 27.213C23.8917 26.4353 23.4834 25.4825 23.4834 24.3547C23.4834 23.2269 23.8917 22.2742 24.7084 21.4964C25.5251 20.7186 26.4973 20.3297 27.6251 20.3297C28.7528 20.3297 29.7056 20.7186 30.4834 21.4964C31.2612 22.2742 31.6501 23.2269 31.6501 24.3547C31.6501 25.4825 31.2612 26.4353 30.4834 27.213C29.7056 27.9908 28.7334 28.3797 27.5667 28.3797Z" fill="black"/>
</svg>
