<svg width="19" height="18" viewBox="0 0 19 18" fill="none" xmlns="http://www.w3.org/2000/svg">
<path d="M13.07 12.43C12.91 12.43 12.8 12.35 12.74 12.19C12.68 12.03 12.71 11.89 12.83 11.77C12.95 11.65 13.09 11.64 13.25 11.74C13.41 11.84 13.47 11.95 13.43 12.07C13.39 12.19 13.34 12.28 13.28 12.34C13.22 12.4 13.15 12.43 13.07 12.43ZM11.09 5.83004H7.84997C7.72997 5.83004 7.63997 5.86004 7.57997 5.92004C7.51997 5.98004 7.48997 6.07004 7.48997 6.19004V10.63C7.48997 10.75 7.51997 10.84 7.57997 10.9C7.63997 10.96 7.72997 10.99 7.84997 10.99H11.09C11.21 10.99 11.3 10.96 11.36 10.9C11.42 10.84 11.45 10.75 11.45 10.63V6.19004C11.45 6.07004 11.42 5.98004 11.36 5.92004C11.3 5.86004 11.21 5.83004 11.09 5.83004ZM8.14997 6.55004H9.10997V10.33H8.14997V6.55004ZM10.79 10.33H9.82997V6.55004H10.79V10.33ZM18.29 9.07004L13.43 6.19004V3.61004C13.43 3.49004 13.39 3.39004 13.31 3.31004L9.70997 0.490038C9.54997 0.410036 9.38997 0.410036 9.22997 0.490038L5.62997 3.31004C5.54997 3.39004 5.50997 3.49004 5.50997 3.61004V6.19004L0.649971 9.07004C0.529971 9.11004 0.469971 9.21004 0.469971 9.37004V11.29C0.469971 11.41 0.509971 11.5 0.589971 11.56C0.669971 11.62 0.739971 11.65 0.799971 11.65C0.859971 11.65 0.929971 11.63 1.00997 11.59L1.24997 11.47V16.99C1.24997 17.07 1.27997 17.15 1.33997 17.23C1.39997 17.31 1.48997 17.35 1.60997 17.35H17.33C17.45 17.35 17.54 17.31 17.6 17.23C17.66 17.15 17.69 17.07 17.69 16.99V11.47L17.93 11.59C18.01 11.63 18.08 11.65 18.14 11.65C18.2 11.65 18.27 11.62 18.35 11.56C18.43 11.5 18.47 11.41 18.47 11.29V9.37004C18.47 9.21004 18.41 9.11004 18.29 9.07004ZM9.46997 1.21004L12.71 3.79004V4.93004L9.70997 2.59004C9.54997 2.47004 9.38997 2.47004 9.22997 2.59004L6.22997 4.93004V3.79004L9.46997 1.21004ZM1.18997 9.55004L5.50997 6.97004V8.11004L1.18997 10.69V9.55004ZM1.96997 12.73H3.46997V14.83H1.96997V12.73ZM1.96997 15.49H3.82997C3.94997 15.49 4.03997 15.46 4.09997 15.4C4.15997 15.34 4.18997 15.25 4.18997 15.13V12.37C4.18997 12.25 4.15997 12.16 4.09997 12.1C4.03997 12.04 3.94997 12.01 3.82997 12.01H1.96997V11.05L5.50997 8.95004V16.63H1.96997V15.49ZM8.62997 16.63V12.79H10.31V16.63H8.62997ZM16.97 14.83H15.35V12.73H16.97V14.83ZM16.97 12.01H14.99C14.91 12.01 14.84 12.04 14.78 12.1C14.72 12.16 14.69 12.25 14.69 12.37V15.13C14.69 15.25 14.72 15.34 14.78 15.4C14.84 15.46 14.91 15.49 14.99 15.49H16.97V16.63H13.43V13.63C13.43 13.55 13.4 13.47 13.34 13.39C13.28 13.31 13.2 13.27 13.1 13.27C13 13.27 12.91 13.31 12.83 13.39C12.75 13.47 12.71 13.55 12.71 13.63V16.63H10.97V12.49C10.97 12.37 10.94 12.28 10.88 12.22C10.82 12.16 10.75 12.13 10.67 12.13H8.26997C8.18997 12.13 8.11997 12.16 8.05997 12.22C7.99997 12.28 7.96997 12.37 7.96997 12.49V16.63H6.22997V5.83004L9.46997 3.31004L12.71 5.83004V10.45C12.71 10.57 12.75 10.66 12.83 10.72C12.91 10.78 13 10.81 13.1 10.81C13.2 10.81 13.28 10.78 13.34 10.72C13.4 10.66 13.43 10.57 13.43 10.45V8.95004L16.97 11.05V12.01ZM17.75 10.69L13.43 8.11004V6.97004L17.75 9.55004V10.69Z" fill="#1A1A1A"/>
</svg>
