<svg width="18" height="21" viewBox="0 0 18 21" fill="none" xmlns="http://www.w3.org/2000/svg">
<path d="M15.1334 2.62342C14.2889 1.82342 13.3445 1.2012 12.3 0.756754C11.2556 0.312309 10.1556 0.090086 9.00004 0.090086C7.84449 0.090086 6.73337 0.312309 5.66671 0.756754C4.60004 1.2012 3.66671 1.82342 2.86671 2.62342C2.06671 3.42342 1.44449 4.35675 1.00004 5.42342C0.555596 6.49009 0.333374 7.6012 0.333374 8.75675C0.333374 9.91231 0.555596 11.0123 1.00004 12.0568C1.44449 13.1012 2.06671 14.0456 2.86671 14.8901L7.46671 19.4901C7.86671 19.8901 8.36671 20.0901 8.96671 20.0901C9.56671 20.0901 10.0889 19.8901 10.5334 19.4901L15.1334 14.8901C15.9334 14.0456 16.5556 13.1012 17 12.0568C17.4445 11.0123 17.6667 9.91231 17.6667 8.75675C17.6667 7.6012 17.4445 6.49009 17 5.42342C16.5556 4.35675 15.9334 3.42342 15.1334 2.62342ZM14.2667 14.0234L9.66671 18.6234C9.48893 18.8012 9.26671 18.8901 9.00004 18.8901C8.73337 18.8901 8.48893 18.8012 8.26671 18.6234L3.66671 14.0234C2.9556 13.3123 2.42226 12.5012 2.06671 11.5901C1.71115 10.679 1.53337 9.72342 1.53337 8.72342C1.53337 7.72342 1.71115 6.76787 2.06671 5.85675C2.42226 4.94564 2.9556 4.14564 3.66671 3.45675C4.37782 2.76786 5.18893 2.23453 6.10004 1.85675C7.01115 1.47898 7.96671 1.29009 8.96671 1.29009C9.96671 1.29009 10.9223 1.47898 11.8334 1.85675C12.7445 2.23453 13.5556 2.75675 14.2667 3.42342C15.2445 4.4012 15.9 5.53453 16.2334 6.82342C16.5667 8.11231 16.5667 9.4012 16.2334 10.6901C15.9 11.979 15.2445 13.0901 14.2667 14.0234ZM9.00004 5.62342C8.1556 5.62342 7.42226 5.93453 6.80004 6.55675C6.17782 7.17898 5.86671 7.91231 5.86671 8.75675C5.86671 9.6012 6.17782 10.3234 6.80004 10.9234C7.42226 11.5234 8.1556 11.8234 9.00004 11.8234C9.84449 11.8234 10.5667 11.5234 11.1667 10.9234C11.7667 10.3234 12.0667 9.6012 12.0667 8.75675C12.0667 7.91231 11.7667 7.17898 11.1667 6.55675C10.5667 5.93453 9.84449 5.62342 9.00004 5.62342ZM9.00004 10.6901C8.46671 10.6901 8.01115 10.5012 7.63337 10.1234C7.2556 9.74564 7.06671 9.29009 7.06671 8.75675C7.06671 8.22342 7.2556 7.76787 7.63337 7.39009C8.01115 7.01231 8.46671 6.82342 9.00004 6.82342C9.53337 6.82342 9.98893 7.01231 10.3667 7.39009C10.7445 7.76787 10.9334 8.22342 10.9334 8.75675C10.9334 9.29009 10.7445 9.74564 10.3667 10.1234C9.98893 10.5012 9.53337 10.6901 9.00004 10.6901Z" fill="#1A1A1A"/>
</svg>
