<svg width="21" height="21" viewBox="0 0 21 21" fill="none" xmlns="http://www.w3.org/2000/svg">
<g clip-path="url(#clip0_2_553)">
<path d="M20.78 10.6033C20.78 10.1144 20.6134 9.7033 20.28 9.36997C19.9467 9.03663 19.5356 8.86997 19.0467 8.86997H3.91336V3.46997C3.91336 3.02552 4.06892 2.64775 4.38003 2.33663C4.60225 2.11441 4.85781 1.98108 5.1467 1.93663C5.43559 1.89219 5.73559 1.91441 6.0467 2.0033C5.6467 2.62552 5.49114 3.31441 5.58003 4.06997C5.66892 4.82552 5.98003 5.46997 6.51336 6.0033L6.6467 6.2033C6.78003 6.29219 6.92447 6.33663 7.08003 6.33663C7.23559 6.33663 7.35781 6.29219 7.4467 6.2033L11.2467 2.4033C11.38 2.26997 11.4467 2.12552 11.4467 1.96997C11.4467 1.81441 11.38 1.66997 11.2467 1.53663L11.1134 1.4033C10.5356 0.825523 9.83559 0.514412 9.01336 0.469967C8.19114 0.425524 7.46892 0.647745 6.8467 1.13663C6.31336 0.825523 5.73559 0.7033 5.11336 0.769968C4.49114 0.836634 3.95781 1.09219 3.51336 1.53663C2.98003 2.06997 2.71336 2.71441 2.71336 3.46997V8.86997H2.51336C2.02447 8.86997 1.61336 9.03663 1.28003 9.36997C0.946696 9.7033 0.780029 10.1144 0.780029 10.6033C0.780029 11.0033 0.89114 11.3477 1.11336 11.6366C1.33558 11.9255 1.60225 12.1366 1.91336 12.27V13.5366C1.91336 14.6033 2.20225 15.5811 2.78003 16.47C3.35781 17.3589 4.09114 18.0477 4.98003 18.5366L4.4467 19.6033C4.35781 19.7811 4.3467 19.9366 4.41336 20.07C4.48003 20.2033 4.58003 20.3144 4.71336 20.4033C4.8467 20.4922 4.99114 20.5033 5.1467 20.4366C5.30225 20.37 5.42447 20.27 5.51336 20.1366L6.11336 18.9366C6.55781 19.0255 7.02447 19.07 7.51336 19.07H14.0467C14.5356 19.07 15.0023 19.0255 15.4467 18.9366L16.0467 20.1366C16.1356 20.27 16.2578 20.37 16.4134 20.4366C16.5689 20.5033 16.7134 20.4922 16.8467 20.4033C16.98 20.3144 17.08 20.2033 17.1467 20.07C17.2134 19.9366 17.2023 19.7811 17.1134 19.6033L16.58 18.5366C17.4689 18.0477 18.2023 17.3589 18.78 16.47C19.3578 15.5811 19.6467 14.6033 19.6467 13.5366V12.27C19.9578 12.1366 20.2245 11.9255 20.4467 11.6366C20.6689 11.3477 20.78 11.0033 20.78 10.6033ZM9.98003 2.0033L7.11336 4.93663C6.80225 4.49219 6.66892 4.02552 6.71336 3.53663C6.75781 3.04774 6.95781 2.62552 7.31336 2.26997C7.66892 1.91441 8.10225 1.71441 8.61336 1.66997C9.12447 1.62552 9.58003 1.73664 9.98003 2.0033ZM2.51336 10.07H19.0467C19.18 10.07 19.3023 10.1255 19.4134 10.2366C19.5245 10.3477 19.58 10.4811 19.58 10.6366C19.58 10.7922 19.5245 10.9255 19.4134 11.0366C19.3023 11.1477 19.18 11.2033 19.0467 11.2033H2.51336C2.38003 11.2033 2.25781 11.1477 2.1467 11.0366C2.03558 10.9255 1.98003 10.7922 1.98003 10.6366C1.98003 10.4811 2.03558 10.3477 2.1467 10.2366C2.25781 10.1255 2.38003 10.07 2.51336 10.07ZM18.4467 13.5366C18.4467 14.3366 18.2467 15.07 17.8467 15.7366C17.4467 16.4033 16.9134 16.9366 16.2467 17.3366C15.58 17.7366 14.8467 17.9366 14.0467 17.9366H7.51336C6.71336 17.9366 5.98003 17.7366 5.31336 17.3366C4.6467 16.9366 4.11336 16.4033 3.71336 15.7366C3.31336 15.07 3.11336 14.3366 3.11336 13.5366V12.4033H18.4467V13.5366ZM9.2467 6.4033C9.2467 6.58108 9.30225 6.72552 9.41336 6.83663C9.52447 6.94775 9.65781 7.0033 9.81336 7.0033C9.96892 7.0033 10.1023 6.94775 10.2134 6.83663C10.3245 6.72552 10.38 6.58108 10.38 6.4033C10.38 6.22552 10.3245 6.08108 10.2134 5.96997C10.1023 5.85886 9.96892 5.8033 9.81336 5.8033C9.65781 5.8033 9.52447 5.85886 9.41336 5.96997C9.30225 6.08108 9.2467 6.22552 9.2467 6.4033ZM10.9134 4.73663C10.9134 4.91441 10.9689 5.05886 11.08 5.16997C11.1911 5.28108 11.3245 5.33663 11.48 5.33663C11.6356 5.33663 11.7689 5.28108 11.88 5.16997C11.9911 5.05886 12.0467 4.91441 12.0467 4.73663C12.0467 4.55886 11.9911 4.41441 11.88 4.3033C11.7689 4.19219 11.6356 4.13663 11.48 4.13663C11.3245 4.13663 11.1911 4.19219 11.08 4.3033C10.9689 4.41441 10.9134 4.55886 10.9134 4.73663ZM11.3134 6.8033C11.3134 6.93664 11.3689 7.06997 11.48 7.2033C11.5911 7.33663 11.7245 7.4033 11.88 7.4033C12.0356 7.4033 12.1689 7.33663 12.28 7.2033C12.3911 7.06997 12.4467 6.92552 12.4467 6.76997C12.4467 6.61441 12.3911 6.48108 12.28 6.36997C12.1689 6.25886 12.0356 6.2033 11.88 6.2033C11.7245 6.2033 11.5911 6.25886 11.48 6.36997C11.3689 6.48108 11.3134 6.62552 11.3134 6.8033Z" fill="#1A1A1A"/>
</g>
<defs>
<clipPath id="clip0_2_553">
<rect width="20" height="20" fill="white" transform="matrix(1 0 0 -1 0.780029 20.47)"/>
</clipPath>
</defs>
</svg>
