<svg width="21" height="21" viewBox="0 0 21 21" fill="none" xmlns="http://www.w3.org/2000/svg">
<g clip-path="url(#clip0_2_549)">
<path d="M18.3633 6.73667H9.56329C9.11884 6.73667 8.69662 6.87 8.29662 7.13667C8.20773 6.47 7.92996 5.92556 7.46329 5.50334C6.99662 5.08111 6.45218 4.87 5.82996 4.87C5.34107 4.87 4.89662 4.98111 4.49662 5.20334V4.20334C4.49662 4.02556 4.44107 3.88111 4.32996 3.77C4.21885 3.65889 4.0744 3.60334 3.89662 3.60334H1.42996C1.25218 3.60334 1.10773 3.65889 0.996623 3.77C0.885512 3.88111 0.829956 4.02556 0.829956 4.20334V16.7367C0.829956 16.9144 0.885512 17.0589 0.996623 17.17C1.10773 17.2811 1.25218 17.3367 1.42996 17.3367H3.89662C4.0744 17.3367 4.21885 17.2811 4.32996 17.17C4.44107 17.0589 4.49662 16.9144 4.49662 16.7367V14.8033H17.1633V16.7367C17.1633 16.9144 17.2188 17.0589 17.33 17.17C17.4411 17.2811 17.5855 17.3367 17.7633 17.3367H20.23C20.4077 17.3367 20.5522 17.2811 20.6633 17.17C20.7744 17.0589 20.83 16.9144 20.83 16.7367V9.20334C20.83 8.53667 20.5855 7.95889 20.0966 7.47C19.6077 6.98111 19.03 6.73667 18.3633 6.73667ZM5.82996 6.00334C6.18551 6.00334 6.48551 6.13667 6.72996 6.40334C6.9744 6.67 7.09662 6.98111 7.09662 7.33667C7.09662 7.69223 6.9744 7.99222 6.72996 8.23667C6.48551 8.48111 6.18551 8.60334 5.82996 8.60334C5.4744 8.60334 5.16329 8.48111 4.89662 8.23667C4.62996 7.99222 4.49662 7.69223 4.49662 7.33667C4.49662 6.98111 4.62996 6.67 4.89662 6.40334C5.16329 6.13667 5.4744 6.00334 5.82996 6.00334ZM4.49662 9.40334C4.89662 9.67 5.32996 9.80334 5.79662 9.80334C6.26329 9.80334 6.69662 9.67 7.09662 9.40334V11.1367H4.49662V9.40334ZM19.63 16.1367H18.2966V14.2033C18.2966 14.07 18.2411 13.9478 18.13 13.8367C18.0188 13.7256 17.8966 13.67 17.7633 13.67H3.89662C3.76329 13.67 3.64107 13.7256 3.52996 13.8367C3.41885 13.9478 3.36329 14.07 3.36329 14.2033V16.1367H2.02996V4.80334H3.36329V11.7367C3.36329 11.87 3.41885 12.0033 3.52996 12.1367C3.64107 12.27 3.76329 12.3367 3.89662 12.3367H19.63V16.1367ZM19.63 11.1367H8.29662V9.20334C8.29662 8.84778 8.41885 8.54778 8.66329 8.30334C8.90773 8.05889 9.20773 7.93667 9.56329 7.93667H18.3633C18.7188 7.93667 19.0188 8.05889 19.2633 8.30334C19.5077 8.54778 19.63 8.84778 19.63 9.20334V11.1367Z" fill="#1A1A1A"/>
</g>
<defs>
<clipPath id="clip0_2_549">
<rect width="20" height="20" fill="white" transform="matrix(1 0 0 -1 0.829956 20.47)"/>
</clipPath>
</defs>
</svg>
