<svg width="21" height="21" viewBox="0 0 21 21" fill="none" xmlns="http://www.w3.org/2000/svg">
<path d="M16.5966 19.27H14.1966C14.0633 19.27 13.93 19.3366 13.7966 19.47C13.6633 19.6033 13.5966 19.7477 13.5966 19.9033C13.5966 20.0589 13.6633 20.1922 13.7966 20.3033C13.93 20.4144 14.0633 20.47 14.1966 20.47H16.5966C16.7744 20.47 16.9189 20.4144 17.03 20.3033C17.1411 20.1922 17.1966 20.0589 17.1966 19.9033C17.1966 19.7477 17.1411 19.6033 17.03 19.47C16.9189 19.3366 16.7744 19.27 16.5966 19.27ZM11.8633 19.27H9.52998C9.3522 19.27 9.20776 19.3366 9.09665 19.47C8.98554 19.6033 8.92998 19.7477 8.92998 19.9033C8.92998 20.0589 8.98554 20.1922 9.09665 20.3033C9.20776 20.4144 9.3522 20.47 9.52998 20.47H11.8633C12.0411 20.47 12.1855 20.4144 12.2966 20.3033C12.4078 20.1922 12.4633 20.0589 12.4633 19.9033C12.4633 19.7477 12.4078 19.6033 12.2966 19.47C12.1855 19.3366 12.0411 19.27 11.8633 19.27ZM20.13 8.66997C19.9966 8.66997 19.8633 8.72553 19.73 8.83664C19.5966 8.94775 19.53 9.09219 19.53 9.26997V11.6033C19.53 11.7811 19.5966 11.9255 19.73 12.0366C19.8633 12.1477 20.0078 12.2033 20.1633 12.2033C20.3189 12.2033 20.4522 12.1477 20.5633 12.0366C20.6744 11.9255 20.73 11.7811 20.73 11.6033V9.26997C20.73 9.09219 20.6744 8.94775 20.5633 8.83664C20.4522 8.72553 20.3078 8.66997 20.13 8.66997ZM20.13 13.3366C19.9966 13.3366 19.8633 13.4033 19.73 13.5366C19.5966 13.67 19.53 13.8033 19.53 13.9366V16.27C19.53 16.4477 19.5966 16.5922 19.73 16.7033C19.8633 16.8144 20.0078 16.87 20.1633 16.87C20.3189 16.87 20.4522 16.8144 20.5633 16.7033C20.6744 16.5922 20.73 16.4477 20.73 16.27V13.9366C20.73 13.8033 20.6744 13.67 20.5633 13.5366C20.4522 13.4033 20.3078 13.3366 20.13 13.3366ZM7.19665 19.27H6.59665V18.7366C6.59665 18.5589 6.54109 18.4144 6.42998 18.3033C6.31887 18.1922 6.17443 18.1366 5.99665 18.1366C5.81887 18.1366 5.67443 18.1922 5.56331 18.3033C5.4522 18.4144 5.39665 18.5589 5.39665 18.7366V19.87C5.39665 20.0477 5.4522 20.1922 5.56331 20.3033C5.67443 20.4144 5.81887 20.47 5.99665 20.47H7.19665C7.32998 20.47 7.4522 20.4144 7.56331 20.3033C7.67443 20.1922 7.72998 20.0589 7.72998 19.9033C7.72998 19.7477 7.67443 19.6033 7.56331 19.47C7.4522 19.3366 7.32998 19.27 7.19665 19.27ZM20.13 5.13664H18.9966C18.8189 5.13664 18.6744 5.19219 18.5633 5.3033C18.4522 5.41441 18.3966 5.55886 18.3966 5.73664C18.3966 5.91441 18.4522 6.05886 18.5633 6.16997C18.6744 6.28108 18.8189 6.33664 18.9966 6.33664H19.53V6.93664C19.53 7.06997 19.5966 7.19219 19.73 7.3033C19.8633 7.41441 20.0078 7.46997 20.1633 7.46997C20.3189 7.46997 20.4522 7.41441 20.5633 7.3033C20.6744 7.19219 20.73 7.06997 20.73 6.93664V5.73664C20.73 5.55886 20.6744 5.41441 20.5633 5.3033C20.4522 5.19219 20.3078 5.13664 20.13 5.13664ZM20.13 18.1366C19.9966 18.1366 19.8633 18.1922 19.73 18.3033C19.5966 18.4144 19.53 18.5589 19.53 18.7366V19.27H18.9966C18.8189 19.27 18.6744 19.3366 18.5633 19.47C18.4522 19.6033 18.3966 19.7477 18.3966 19.9033C18.3966 20.0589 18.4522 20.1922 18.5633 20.3033C18.6744 20.4144 18.8189 20.47 18.9966 20.47H20.13C20.3078 20.47 20.4522 20.4144 20.5633 20.3033C20.6744 20.1922 20.73 20.0477 20.73 19.87V18.7366C20.73 18.5589 20.6744 18.4144 20.5633 18.3033C20.4522 18.1922 20.3078 18.1366 20.13 18.1366ZM16.5966 5.13664H15.9966V1.06997C15.9966 0.892193 15.93 0.747747 15.7966 0.636637C15.6633 0.525526 15.53 0.469969 15.3966 0.469969H1.32998C1.1522 0.469969 1.00776 0.525526 0.896647 0.636637C0.785536 0.747747 0.72998 0.892193 0.72998 1.06997V15.1366C0.72998 15.27 0.785536 15.4033 0.896647 15.5366C1.00776 15.67 1.1522 15.7366 1.32998 15.7366H5.39665V16.27C5.39665 16.4477 5.4522 16.5922 5.56331 16.7033C5.67443 16.8144 5.81887 16.87 5.99665 16.87C6.17443 16.87 6.31887 16.8144 6.42998 16.7033C6.54109 16.5922 6.59665 16.4477 6.59665 16.27V6.33664H16.5966C16.7744 6.33664 16.9189 6.28108 17.03 6.16997C17.1411 6.05886 17.1966 5.91441 17.1966 5.73664C17.1966 5.55886 17.1411 5.41441 17.03 5.3033C16.9189 5.19219 16.7744 5.13664 16.5966 5.13664ZM14.7966 5.13664H5.99665C5.81887 5.13664 5.67443 5.19219 5.56331 5.3033C5.4522 5.41441 5.39665 5.55886 5.39665 5.73664V14.5366H1.92998V1.66997H14.7966V5.13664Z" fill="#1A1A1A"/>
</svg>
